<mxfile host="app.diagrams.net" modified="2022-06-22T03:50:36.363Z" agent="5.0 (Windows NT 10.0; Win64; x64) AppleWebKit/537.36 (KHTML, like Gecko) Chrome/102.0.0.0 Safari/537.36" etag="I_3sDJuq93sIO2KAHbHN" version="20.0.2" type="github">
  <diagram id="nJcIlM35ElsT4FS-h3ae" name="Page-1">
    <mxGraphModel dx="1038" dy="556" grid="1" gridSize="10" guides="1" tooltips="1" connect="1" arrows="1" fold="1" page="1" pageScale="1" pageWidth="850" pageHeight="1100" math="0" shadow="0">
      <root>
        <mxCell id="0" />
        <mxCell id="1" parent="0" />
        <mxCell id="-jOqkrftF3oMmC0jMqJh-16" value="" style="rounded=0;whiteSpace=wrap;html=1;" vertex="1" parent="1">
          <mxGeometry x="290" y="10" width="470" height="70" as="geometry" />
        </mxCell>
        <mxCell id="-jOqkrftF3oMmC0jMqJh-15" value="" style="rounded=0;whiteSpace=wrap;html=1;" vertex="1" parent="1">
          <mxGeometry x="290" y="110" width="470" height="180" as="geometry" />
        </mxCell>
        <mxCell id="-jOqkrftF3oMmC0jMqJh-3" value="M选N促销" style="rounded=1;whiteSpace=wrap;html=1;" vertex="1" parent="1">
          <mxGeometry x="110" y="330" width="120" height="290" as="geometry" />
        </mxCell>
        <mxCell id="-jOqkrftF3oMmC0jMqJh-4" value="创建“M选N促销”服务单" style="rounded=1;whiteSpace=wrap;html=1;" vertex="1" parent="1">
          <mxGeometry x="321.25" y="135" width="125" height="40" as="geometry" />
        </mxCell>
        <mxCell id="-jOqkrftF3oMmC0jMqJh-5" value="服务单-关联促销单" style="rounded=1;whiteSpace=wrap;html=1;" vertex="1" parent="1">
          <mxGeometry x="608.75" y="135" width="120" height="40" as="geometry" />
        </mxCell>
        <mxCell id="-jOqkrftF3oMmC0jMqJh-6" value="订单MQ" style="rounded=1;whiteSpace=wrap;html=1;" vertex="1" parent="1">
          <mxGeometry x="280" y="440" width="120" height="60" as="geometry" />
        </mxCell>
        <mxCell id="-jOqkrftF3oMmC0jMqJh-7" value="创建权益" style="rounded=1;whiteSpace=wrap;html=1;" vertex="1" parent="1">
          <mxGeometry x="468.75" y="220" width="120" height="40" as="geometry" />
        </mxCell>
        <mxCell id="-jOqkrftF3oMmC0jMqJh-8" value="服务单-商品配置" style="rounded=1;whiteSpace=wrap;html=1;" vertex="1" parent="1">
          <mxGeometry x="468.75" y="135" width="120" height="40" as="geometry" />
        </mxCell>
        <mxCell id="-jOqkrftF3oMmC0jMqJh-9" value="创建服务包" style="rounded=1;whiteSpace=wrap;html=1;" vertex="1" parent="1">
          <mxGeometry x="321.25" y="220" width="127.5" height="40" as="geometry" />
        </mxCell>
        <mxCell id="-jOqkrftF3oMmC0jMqJh-10" value="创建促销单" style="rounded=1;whiteSpace=wrap;html=1;" vertex="1" parent="1">
          <mxGeometry x="608.75" y="220" width="120" height="40" as="geometry" />
        </mxCell>
        <mxCell id="-jOqkrftF3oMmC0jMqJh-11" value="终端" style="rounded=1;whiteSpace=wrap;html=1;" vertex="1" parent="1">
          <mxGeometry x="140" y="10" width="120" height="60" as="geometry" />
        </mxCell>
        <mxCell id="-jOqkrftF3oMmC0jMqJh-12" value="用户购买服务包，权益" style="rounded=1;whiteSpace=wrap;html=1;" vertex="1" parent="1">
          <mxGeometry x="321.25" y="30" width="125" height="30" as="geometry" />
        </mxCell>
        <mxCell id="-jOqkrftF3oMmC0jMqJh-13" value="服务" style="rounded=1;whiteSpace=wrap;html=1;" vertex="1" parent="1">
          <mxGeometry x="140" y="110" width="120" height="180" as="geometry" />
        </mxCell>
      </root>
    </mxGraphModel>
  </diagram>
</mxfile>
